<?xml version="1.0" ?><!DOCTYPE svg  PUBLIC '-//W3C//DTD SVG 1.1//EN'  'http://www.w3.org/Graphics/SVG/1.1/DTD/svg11.dtd'><svg enable-background="new 0 0 128 128" height="128px" id="Layer_1" version="1.1" viewBox="0 0 128 128" width="128px" xml:space="preserve" xmlns="http://www.w3.org/2000/svg" xmlns:xlink="http://www.w3.org/1999/xlink"><path clip-rule="evenodd" d="  M90.944,31.962h11.707c8.936,0,16.18,7.244,16.18,16.179v44.763c0,8.936-7.244,16.179-16.18,16.179H25.349  c-8.936,0-16.179-7.244-16.179-16.179V48.141c0-8.936,7.244-16.179,16.179-16.179h11.707H90.944z" fill="none" fill-rule="evenodd" stroke="#000000" stroke-miterlimit="10" stroke-width="3"/><g><g><path d="M103.115,70.523c-0.146,11.971-7.966,22.438-19.496,25.781c-11.565,3.353-23.914-2.125-29.987-12.287    c-6.196-10.366-4.138-23.86,4.152-32.399c8.385-8.637,21.871-10.094,32.179-4.18C98.171,52.147,103.001,61.176,103.115,70.523    c0.023,1.933,3.023,1.936,3,0c-0.135-11.018-6.086-21.05-15.789-26.318c-9.726-5.28-21.921-4.244-30.879,2.08    C50.57,52.551,45.825,63.67,47.272,74.411c1.467,10.886,8.733,19.908,18.893,23.949c9.051,3.6,19.638,1.957,27.509-3.599    c7.848-5.538,12.325-14.712,12.441-24.238C106.139,68.587,103.139,68.59,103.115,70.523z"/></g></g><g><g><path d="M90.096,70.523c-0.168,7.519-5.99,13.462-13.536,13.633c-7.545,0.171-13.372-6.373-13.534-13.633    c-0.168-7.518,6.242-13.468,13.534-13.633C84.104,56.719,89.934,63.262,90.096,70.523c0.043,1.932,3.043,1.936,3,0    c-0.205-9.167-7.342-16.425-16.536-16.633c-9.192-0.208-16.337,7.78-16.535,16.633c-0.205,9.167,7.649,16.432,16.535,16.633    c9.193,0.208,16.339-7.778,16.536-16.633C93.139,68.587,90.139,68.591,90.096,70.523z"/></g></g><g><g><path d="M31.329,46.546c-0.254,4.719-7.066,4.719-7.32,0C23.754,41.824,31.076,41.849,31.329,46.546c0.104,1.924,3.104,1.934,3,0    c-0.203-3.766-2.894-6.458-6.66-6.66c-3.758-0.203-6.474,3.199-6.661,6.66c-0.202,3.758,3.2,6.474,6.661,6.66    c3.757,0.202,6.473-3.2,6.66-6.66C34.433,44.612,31.433,44.622,31.329,46.546z"/></g></g><g><g><path d="M91.518,17.417c-8.881,0-17.763,0-26.644,0c-0.719,0-1.201,0.469-1.446,1.101c-1.685,4.349-3.37,8.697-5.055,13.045    c-0.359,0.926,0.546,1.899,1.446,1.899c11.97,0,23.941,0,35.911,0c0.943,0,1.748-0.963,1.446-1.899    c-1.404-4.348-2.808-8.697-4.212-13.045c-0.592-1.833-3.489-1.049-2.893,0.798c1.404,4.348,2.808,8.697,4.212,13.045    c0.482-0.633,0.964-1.266,1.446-1.899c-11.97,0-23.94,0-35.911,0c0.482,0.633,0.964,1.266,1.446,1.899    c1.685-4.349,3.371-8.697,5.055-13.045c-0.482,0.367-0.964,0.734-1.446,1.101c8.881,0,17.763,0,26.644,0    C93.452,20.417,93.452,17.417,91.518,17.417z"/></g></g><rect clip-rule="evenodd" fill="none" fill-rule="evenodd" height="7.292" stroke="#000000" stroke-miterlimit="10" stroke-width="3" width="12.944" x="26.357" y="24.67"/></svg>